Coordinates
version=1
nRows=9
nColumns=36
inDegrees=yes

Units are S.I. units (second, meters, Newtons, ...)
If the header above contains a line with 'inDegrees', this indicates whether rotational values are in degrees (yes) or radians (no).

endheader
time	pelvis_tilt	pelvis_list	pelvis_rotation	pelvis_tx	pelvis_ty	pelvis_tz	hip_flexion_r	hip_adduction_r	hip_rotation_r	knee_angle_r	knee_angle_r_beta	ankle_angle_r	subtalar_angle_r	mtp_angle_r	hip_flexion_l	hip_adduction_l	hip_rotation_l	knee_angle_l	knee_angle_l_beta	ankle_angle_l	subtalar_angle_l	mtp_angle_l	lumbar_extension	lumbar_bending	lumbar_rotation	arm_flex_r	arm_add_r	arm_rot_r	elbow_flex_r	pro_sup_r	arm_flex_l	arm_add_l	arm_rot_l	elbow_flex_l	pro_sup_l
      1.68333330	      2.39103170	      1.81365248	      3.66123371	     -0.14870614	      1.26123142	      0.02619202	     -3.28412033	     -1.32588131	     -2.80333554	      1.66527037	      0.02906445	     10.54867930	      0.13789812	     -7.49999987	     -2.21229083	     -0.40563099	     -3.90237006	      2.02420431	      0.03532903	      9.72183165	      1.22798099	     -7.49999987	     -7.07438622	      0.39591653	     -3.00178461	      3.93599370	     -6.26278414	     22.95005147	     25.78589076	     67.13047505	      4.41466831	     -7.87424157	     29.73924452	     30.99931618	     72.52358526
      1.70000000	      2.31563230	      1.82562615	      3.51163356	     -0.14673927	      1.26437637	      0.02646958	     -3.22735944	     -1.35757086	     -2.39304831	      1.67039539	      0.02915390	     10.34679631	     -0.40042602	     -7.49999987	     -2.12232265	     -0.35469504	     -3.72420785	      2.03681517	      0.03554913	      9.57626513	      0.87538539	     -7.49999987	     -7.03008973	      0.37595659	     -2.99530007	      3.82352185	     -6.08671182	     20.65499085	     25.81570630	     74.95991495	      4.19331173	     -7.39610593	     26.14336122	     30.87483192	     84.68526400
      1.71666670	      2.20091639	      1.83878981	      3.45017784	     -0.14606073	      1.26065953	      0.02759182	     -3.10418306	     -1.37519241	     -2.45493220	      1.70732792	      0.02979849	     10.49596609	     -0.13306781	     -7.49999987	     -1.99435866	     -0.31429183	     -3.70929368	      2.10764008	      0.03678526	      9.76230186	      1.03116673	     -7.49999987	     -6.80692402	      0.32696593	     -2.99618447	      3.90237107	     -6.22599402	     22.55147317	     25.75146035	     68.90440287	      4.39245687	     -7.67675431	     28.76487510	     31.02368622	     76.34256426
      1.73333330	      1.91114524	      1.82509347	      3.31042628	     -0.14866147	      1.25510712	      0.02647439	     -2.70762441	     -1.39129028	     -1.96613957	      1.79108303	      0.03126030	     10.35961425	     -0.83801101	     -7.49999987	     -1.60045593	     -0.25773264	     -3.40362932	      2.24112772	      0.03911506	      9.81533169	      0.38660746	     -7.49999987	     -6.45189026	      0.31983168	     -2.82336895	      3.76303033	     -6.34902991	     22.39192997	     26.13184052	     69.97194317	      4.44889083	     -7.44365361	     28.08133902	     30.83450997	     77.87297825
      1.75000000	      1.88238844	      1.85287040	      3.19810448	     -0.14978545	      1.25419104	      0.02599575	     -2.58619348	     -1.44493472	     -1.83910596	      1.84428698	      0.03218888	     10.42919493	     -0.88163964	     -7.49999987	     -1.47130535	     -0.19342404	     -3.43703412	      2.34684882	      0.04096024	     10.10560641	      0.50566445	     -7.49999987	     -6.55556917	      0.27861815	     -2.84740012	      3.95264346	     -6.25265508	     21.47815770	     25.99627745	     73.91298091	      4.39344416	     -7.32936798	     26.32169616	     31.17814076	     84.43874577
      1.76666670	      1.81914857	      1.88627955	      3.17054496	     -0.14788989	      1.26448000	      0.02548311	     -2.48241113	     -1.51909742	     -1.78833473	      1.83305374	      0.03199282	     10.33715086	     -0.81555269	     -7.49999987	     -1.38650604	     -0.12759742	     -3.37875089	      2.32864560	      0.04064253	     10.07840167	      0.50901287	     -7.49999987	     -6.59093137	      0.25255729	     -2.86967876	      4.05332373	     -6.26297373	     21.46722970	     26.01759147	     73.91377774	      4.52325073	     -7.28304748	     26.30770358	     31.21130688	     84.43595315
      1.78333330	      1.45166441	      1.88465947	      3.12403852	     -0.14618615	      1.26159331	      0.02514568	     -1.99329600	     -1.58438270	     -1.60502669	      1.90628731	      0.03327099	     10.21758625	     -0.87933527	     -7.49999987	     -0.95605150	     -0.04873649	     -3.06473664	      2.42203728	      0.04227253	      9.95837784	     -0.18017739	     -7.49999987	     -6.14423050	      0.19715163	     -2.64046814	      3.96869521	     -6.52164076	     23.25331658	     26.13182407	     69.65514792	      4.82730708	     -7.36164749	     28.32869123	     30.94666999	     77.94577823
      1.80000000	      1.44748638	      1.93761770	      3.21183335	     -0.14448741	      1.26422767	      0.02515985	     -2.01929561	     -1.68898933	     -1.68738478	      1.85114433	      0.03230856	     10.07706351	     -0.73570468	     -7.49999987	     -0.99761000	      0.02363672	     -2.93720785	      2.40931016	      0.04205040	      9.78463612	     -0.34316373	     -7.49999987	     -6.36175723	      0.13263964	     -2.79626615	      3.98282376	     -6.25855108	     21.46472858	     26.06722398	     73.85241914	      4.56467448	     -7.19532686	     25.69049850	     31.45392678	     84.76983073
      1.81666670	      1.37405322	      1.95348383	      3.31745933	     -0.14698208	      1.26664801	      0.02378120	     -1.99401743	     -1.75710689	     -1.63165505	      1.74275830	      0.03041687	      9.73238150	     -0.69406518	     -7.49999987	     -0.92998510	      0.09210561	     -2.82563400	      2.37229594	      0.04140438	      9.63712010	     -0.74200913	     -7.49999987	     -6.46257064	      0.09440424	     -2.70949137	      4.09347608	     -6.32715088	     21.76818929	     26.10736727	     72.33342933	      4.86618287	     -7.21413057	     26.38704915	     31.36712844	     82.20453089
